HIERARCHY
ROOT Hips
{
	OFFSET -0.001795 -0.223333 0.028219
	CHANNELS 6 Xposition Yposition Zposition Zrotation Yrotation Xrotation 
	JOINT LeftUpLeg
	{
		OFFSET 0.069520 -0.091406 -0.006815
		CHANNELS 3 Zrotation Yrotation Xrotation
		JOINT LeftLeg
		{
			OFFSET 0.034277 -0.375199 -0.004496
			CHANNELS 3 Zrotation Yrotation Xrotation
			JOINT LeftFoot
			{
				OFFSET -0.013596 -0.397961 -0.043693
				CHANNELS 3 Zrotation Yrotation Xrotation
				JOINT LeftToe
				{
					OFFSET 0.026358 -0.055791 0.119288
					CHANNELS 3 Zrotation Yrotation Xrotation
					End Site
					{
						OFFSET 0.000000 0.000000 0.000000
					}
				}
			}
		}
	}
	JOINT RightUpLeg
	{
		OFFSET -0.067670 -0.090522 -0.004320
		CHANNELS 3 Zrotation Yrotation Xrotation
		JOINT RightLeg
		{
			OFFSET -0.038290 -0.382569 -0.008850
			CHANNELS 3 Zrotation Yrotation Xrotation
			JOINT RightFoot
			{
				OFFSET 0.015774 -0.398415 -0.042312
				CHANNELS 3 Zrotation Yrotation Xrotation
				JOINT RightToe
				{
					OFFSET -0.025372 -0.048144 0.123348
					CHANNELS 3 Zrotation Yrotation Xrotation
					End Site
					{
						OFFSET 0.000000 0.000000 0.000000
					}
				}
			}
		}
	}
	JOINT Spine
	{
		OFFSET -0.002533 0.108963 -0.026696
		CHANNELS 3 Zrotation Yrotation Xrotation
		JOINT Spine1
		{
			OFFSET 0.005487 0.135180 0.001092
			CHANNELS 3 Zrotation Yrotation Xrotation
			JOINT Spine2
			{
				OFFSET 0.001457 0.052922 0.025425
				CHANNELS 3 Zrotation Yrotation Xrotation
				JOINT Neck
				{
					OFFSET -0.002778 0.213870 -0.042857
					CHANNELS 3 Zrotation Yrotation Xrotation
					JOINT Head
					{
						OFFSET 0.005152 0.064970 0.051349
						CHANNELS 3 Zrotation Yrotation Xrotation
						End Site
						{
							OFFSET 0.000000 0.000000 0.000000
						}
					}
				}
				JOINT LeftShoulder
				{
					OFFSET 0.078845 0.121749 -0.034090
					CHANNELS 3 Zrotation Yrotation Xrotation
					JOINT LeftArm
					{
						OFFSET 0.090977 0.030469 -0.008868
						CHANNELS 3 Zrotation Yrotation Xrotation
						JOINT LeftForeArm
						{
							OFFSET 0.259612 -0.012772 -0.027456
							CHANNELS 3 Zrotation Yrotation Xrotation
							JOINT LeftHand
							{
								OFFSET 0.249234 0.008986 -0.001171
								CHANNELS 3 Zrotation Yrotation Xrotation
								End Site
								{
									OFFSET 0.000000 0.000000 0.000000
								}
							}
						}
					}
				}
				JOINT RightShoulder
				{
					OFFSET -0.081759 0.118833 -0.038615
					CHANNELS 3 Zrotation Yrotation Xrotation
					JOINT RightArm
					{
						OFFSET -0.096012 0.032551 -0.009143
						CHANNELS 3 Zrotation Yrotation Xrotation
						JOINT RightForeArm
						{
							OFFSET -0.253742 -0.013329 -0.021401
							CHANNELS 3 Zrotation Yrotation Xrotation
							JOINT RightHand
							{
								OFFSET -0.255298 0.007772 -0.005559
								CHANNELS 3 Zrotation Yrotation Xrotation
								End Site
								{
									OFFSET 0.000000 0.000000 0.000000
								}
							}
						}
					}
				}
			}
		}
	}
}
MOTION
Frames: 6
Frame Time: 0.050000
0.000000 0.929251 0.000000 2.774925 10.612289 1.684576 -0.318697 -1.612523 -15.621767 -2.879684 -0.078719 12.615389 3.698214 8.719638 2.592477 0.000000 0.000000 0.000000 -3.758795 0.656281 -10.560008 -1.149283 -0.290458 55.591788 -0.529331 -2.583358 3.288995 0.000000 0.000000 0.000000 -2.867941 -0.062430 4.640625 0.332784 -0.076020 -1.379716 -4.795679 1.321388 7.130237 5.749510 -0.964826 -20.182694 0.000000 0.000000 0.000000 -21.483513 -14.561637 3.709441 -38.050790 -27.809519 4.371986 18.151601 -60.569980 -9.714497 0.000000 0.000000 0.000000 22.817512 3.258921 2.299554 46.087312 11.536509 -1.196300 10.382126 58.875940 10.050067 0.000000 0.000000 0.000000 
0.020931 0.932422 0.043097 2.060514 10.385954 1.742255 -0.839189 -1.026997 -10.346360 -3.837189 0.210432 8.853952 3.676913 8.156987 1.425579 0.000000 0.000000 0.000000 -2.626821 1.145331 -17.781993 0.411871 -1.219501 55.581455 -3.682734 -9.316137 0.421754 0.000000 0.000000 0.000000 -1.980899 -0.083178 3.989009 1.317511 -0.517762 -1.622632 -5.438150 -2.463246 7.695835 3.992131 -0.252052 -21.609112 0.000000 0.000000 0.000000 -20.579094 -15.513333 5.494650 -37.949754 -33.049634 5.634786 30.286629 -58.614384 -15.391576 0.000000 0.000000 0.000000 20.972653 2.880979 0.937131 48.434148 9.782812 -1.515478 13.860020 59.529201 11.418722 0.000000 0.000000 0.000000 
0.040102 0.933310 0.087351 1.128609 7.788270 0.622794 -1.506078 -0.452987 -4.793613 -2.165220 0.027193 7.338258 4.937198 10.054692 -0.057259 0.000000 0.000000 0.000000 -1.615494 1.787187 -25.042279 3.739359 -2.256301 51.631386 -5.687401 -14.113948 0.507970 0.000000 0.000000 0.000000 -0.228010 -0.239481 5.825448 1.985666 -0.629908 -4.658062 -6.407952 -2.250879 10.311219 3.700488 -0.500974 -19.376467 0.000000 0.000000 0.000000 -18.529936 -19.484218 8.002460 -34.395906 -37.722204 5.939233 35.707170 -53.453094 -16.325082 0.000000 0.000000 0.000000 20.849612 0.810154 -0.459383 48.167072 7.966947 -2.362688 16.784828 64.208136 14.309919 0.000000 0.000000 0.000000 
0.057575 0.929980 0.133637 0.783157 5.476205 0.157143 -2.308942 0.093550 0.444558 -1.469836 0.007313 5.254527 6.470694 12.493445 -2.611359 0.000000 0.000000 0.000000 -0.100834 2.498313 -28.514983 5.354534 -1.877517 39.651731 -6.887207 -16.942452 0.521388 0.000000 0.000000 0.000000 1.067589 -0.361255 6.719068 2.297434 -0.833126 -4.083453 -5.644044 -4.995015 9.215450 1.040063 0.696487 -21.113999 0.000000 0.000000 0.000000 -18.264909 -19.008028 8.898689 -31.506789 -40.230485 5.763531 41.027945 -51.100386 -17.383734 0.000000 0.000000 0.000000 17.729205 0.389921 -1.593832 50.172633 6.442660 -2.595163 18.125586 67.011217 14.507873 0.000000 0.000000 0.000000 
0.073769 0.923093 0.182491 1.263352 3.811585 0.126070 -4.968179 0.576737 3.782199 -0.431160 -0.164219 6.086160 7.934518 15.524732 -3.403293 0.000000 0.000000 0.000000 1.417736 3.079438 -29.601772 5.734350 -1.174325 23.841152 -6.708335 -16.639853 2.553491 0.000000 0.000000 0.000000 0.877142 -0.345800 6.790894 3.150523 -1.234325 -3.985880 -5.585773 -7.213117 8.881634 -0.766786 1.357639 -21.860050 0.000000 0.000000 0.000000 -16.716130 -19.893607 10.022305 -29.042608 -43.090268 5.743110 42.293282 -44.934418 -15.042513 0.000000 0.000000 0.000000 16.646327 -0.696577 -2.757856 49.526412 4.232330 -3.238544 25.393244 72.318923 20.008249 0.000000 0.000000 0.000000 
0.087956 0.916282 0.235313 1.550334 1.233275 0.797363 -6.846096 0.929872 5.475806 -0.733178 -0.147921 7.728185 9.226714 18.546352 -3.941713 0.000000 0.000000 0.000000 2.992346 3.740531 -30.373171 4.898918 -0.603405 12.982697 -4.735681 -13.130646 7.584681 0.000000 0.000000 0.000000 1.929759 -0.332463 5.408598 3.686636 -1.599314 -2.449359 -6.756183 -9.096713 6.695168 -0.521535 0.869472 -21.001625 0.000000 0.000000 0.000000 -14.119869 -18.567860 9.509733 -27.445386 -43.798772 5.639070 41.968596 -42.785605 -13.691047 0.000000 0.000000 0.000000 19.085349 -0.269317 -3.775688 47.269782 2.820597 -3.106458 29.305430 74.283891 22.352725 0.000000 0.000000 0.000000 
